# xmcd
#
# Track frame offsets:
#	150
#	24241
#	40327
#	61691
#	77825
#	90261
#	111446
#	127494
#	144886
#	174182
#	191086
#	206907
#	224523
#	242607
#	263855
#	281077
#	302889
#	324758
#
# Disc length: 4494 seconds
#
# Revision: 1
# Processed by: cddbd v1.5.2PL0 Copyright (c) Steve Scherf et al.
# Submitted via: audiograbber 1.83.01
#
DISCID=03118c12
DTITLE=Joe Cocker - unknown
DYEAR=1900
DGENRE=
TTITLE0=Just Like A Woman
TTITLE1=Something
TTITLE2=Darling Be Home Soon
TTITLE3=The Moon Is A Harsh Mistress
TTITLE4=You Are So Beautiful
TTITLE5=Performance
TTITLE6=Into The Mystic
TTITLE7=The Jealous Kind
TTITLE8=A Song For You
TTITLE9=Many Rivers To Cross
TTITLE10=Just Like Always
TTITLE11=Up Where We Belong
TTITLE12=Sorry Seems To Be The Hardest
TTITLE13=Have A Little Faith In Me
TTITLE14=Out Of The Blue
TTITLE15=Heart Full Of Rain
TTITLE16=Tonight
TTITLE17=That's The Way Her Love Is
EXTD=
EXTT0=
EXTT1=
EXTT2=
EXTT3=
EXTT4=
EXTT5=
EXTT6=
EXTT7=
EXTT8=
EXTT9=
EXTT10=
EXTT11=
EXTT12=
EXTT13=
EXTT14=
EXTT15=
EXTT16=
EXTT17=
PLAYORDER=
